HIERARCHY
ROOT Hips
{
 OFFSET 0.000000 0.000000 0.000000
 CHANNELS 6 Xposition Yposition Zposition Yrotation Xrotation Zrotation
 JOINT Chest
 {
  OFFSET 0.000000 9.585900 0.002600
  CHANNELS 3 Yrotation Xrotation Zrotation
  JOINT Chest2
  {
   OFFSET 0.000000 9.601200 -0.005300
   CHANNELS 3 Yrotation Xrotation Zrotation
   JOINT Chest3
   {
    OFFSET 0.000000 9.561800 0.000000
    CHANNELS 3 Yrotation Xrotation Zrotation
    JOINT Chest4
    {
     OFFSET 0.000000 9.552100 0.000000
     CHANNELS 3 Yrotation Xrotation Zrotation
     JOINT Neck
     {
      OFFSET 0.000000 14.453000 0.000000
      CHANNELS 3 Yrotation Xrotation Zrotation
      JOINT Head
      {
       OFFSET 0.000000 8.936500 -0.011300
       CHANNELS 3 Yrotation Xrotation Zrotation
       End Site
       {
        OFFSET 0.000000 17.073600 -0.006000
       }
      }
     }
     JOINT RightCollar
     {
      OFFSET -2.921100 9.558500 0.000000
      CHANNELS 3 Yrotation Xrotation Zrotation
      JOINT RightShoulder
      {
       OFFSET -13.519700 0.000000 0.000000
       CHANNELS 3 Yrotation Xrotation Zrotation
       JOINT RightElbow
       {
        OFFSET 0.000000 -29.696600 0.000000
        CHANNELS 3 Yrotation Xrotation Zrotation
        JOINT RightWrist
        {
         OFFSET 0.000000 -24.004700 0.000000
         CHANNELS 3 Yrotation Xrotation Zrotation
         End Site
         {
          OFFSET 0.000000 -17.728500 0.000000
         }
        }
       }
      }
     }
     JOINT LeftCollar
     {
      OFFSET 2.921100 9.558500 0.000000
      CHANNELS 3 Yrotation Xrotation Zrotation
      JOINT LeftShoulder
      {
       OFFSET 13.519700 0.000000 0.000000
       CHANNELS 3 Yrotation Xrotation Zrotation
       JOINT LeftElbow
       {
        OFFSET 0.000000 -29.696600 0.000000
        CHANNELS 3 Yrotation Xrotation Zrotation
        JOINT LeftWrist
        {
         OFFSET 0.000000 -24.004700 0.000000
         CHANNELS 3 Yrotation Xrotation Zrotation
         End Site
         {
          OFFSET 0.000000 -17.728500 0.000000
         }
        }
       }
      }
     }
    }
   }
  }
 }
 JOINT RightHip
 {
  OFFSET -7.771700 -0.012900 -0.001300
  CHANNELS 3 Yrotation Xrotation Zrotation
  JOINT RightKnee
  {
   OFFSET 0.000000 -40.869800 0.001200
   CHANNELS 3 Yrotation Xrotation Zrotation
   JOINT RightAnkle
   {
    OFFSET 0.000000 -39.717900 0.002100
    CHANNELS 3 Yrotation Xrotation Zrotation
    JOINT RightToe
    {
     OFFSET 0.000000 -4.965400 11.033500
     CHANNELS 3 Yrotation Xrotation Zrotation
     End Site
     {
      OFFSET 0.000000 -1.423100 5.872300
     }
    }
   }
  }
 }
 JOINT LeftHip
 {
  OFFSET 7.771700 -0.012900 -0.001300
  CHANNELS 3 Yrotation Xrotation Zrotation
  JOINT LeftKnee
  {
   OFFSET 0.000000 -40.869800 0.001200
   CHANNELS 3 Yrotation Xrotation Zrotation
   JOINT LeftAnkle
   {
    OFFSET 0.000000 -39.717900 0.002100
    CHANNELS 3 Yrotation Xrotation Zrotation
    JOINT LeftToe
    {
     OFFSET 0.000000 -4.965400 11.033500
     CHANNELS 3 Yrotation Xrotation Zrotation
     End Site
     {
      OFFSET 0.000000 -1.423100 5.872300
     }
    }
   }
  }
 }
}
MOTION
Frames: 15
Frame Time: 0.008333
-234.309393 57.855404 22.786774 174.262240 -53.366191 -3.743971 4.212988 22.944526 3.608725 2.189613 13.150982 1.802535 2.818553 16.414720 2.351434 2.187427 13.145780 1.803016 1.449575 18.142342 2.921766 1.711645 -2.106421 4.898391 1.450036 5.311325 -0.300518 -18.029094 -14.663763 -2.602529 -114.777800 -51.954205 154.784366 7.195946 -0.478625 -29.466655 -10.413259 1.653955 -0.192631 13.346625 -9.474742 5.819214 80.212611 -46.824502 -130.091015 8.601578 -16.540578 20.287484 6.592117 -18.154133 0.297784 -40.964336 71.006114 -44.352345 4.645251 -12.344484 13.343449 -0.005960 0.014363 -0.013438 -9.746651 -16.088676 9.510523 54.417562 81.464754 55.966004 -0.029403 -17.936528 -22.500746 -0.001253 -0.019438 0.000108
-234.312272 57.854552 22.784922 174.262086 -53.362677 -3.744279 4.216215 22.949449 3.608388 2.188754 13.144907 1.803873 2.820896 16.418357 2.350744 2.189137 13.146312 1.802758 1.453212 18.143202 2.916542 1.720227 -2.105220 4.887313 1.452457 5.302032 -0.288281 -17.869253 -14.693248 -2.674586 -114.732127 -51.972870 154.774339 7.250024 -0.440691 -29.469597 -10.407472 1.635974 -0.196817 13.203345 -9.484269 5.885742 80.157079 -46.796350 -130.075281 8.585929 -16.476598 20.281489 6.591543 -18.156009 0.296964 -40.973211 71.005132 -44.362044 4.646348 -12.349680 13.345154 -0.017317 0.016439 -0.012112 -9.741546 -16.093089 9.508998 54.407503 81.466663 55.961302 -0.039678 -17.942122 -22.494463 0.008075 -0.019489 -0.000891
-234.315182 57.854350 22.782589 174.267879 -53.363820 -3.746766 4.213799 22.954988 3.605248 2.189354 13.143254 1.805315 2.828143 16.431278 2.347823 2.192307 13.149526 1.802901 1.459217 18.138868 2.911346 1.727490 -2.109078 4.881273 1.450369 5.279928 -0.270962 -17.699547 -14.722508 -2.751627 -114.660339 -51.990826 154.744268 7.298803 -0.406976 -29.455893 -10.406138 1.610596 -0.194200 13.055637 -9.504418 5.947474 80.081542 -46.767692 -130.049031 8.565607 -16.417784 20.272776 6.583526 -18.151082 0.290585 -40.968811 71.010368 -44.362405 4.653039 -12.360207 13.347524 -0.019886 0.018122 -0.013474 -9.741426 -16.092663 9.504846 54.391944 81.469712 55.946370 -0.037823 -17.942663 -22.490056 0.009477 -0.019690 -0.001921
-234.316926 57.853841 22.780717 174.264079 -53.362652 -3.746007 4.219993 22.956719 3.609154 2.189427 13.146286 1.801707 2.833124 16.432460 2.349950 2.194186 13.151419 1.802364 1.459030 18.134299 2.911235 1.766294 -2.086456 4.850569 1.459622 5.265200 -0.248235 -17.528863 -14.751515 -2.838832 -114.576591 -52.003762 154.704226 7.343560 -0.372266 -29.427001 -10.408976 1.599236 -0.190147 12.937976 -9.529408 5.992511 79.978473 -46.741804 -130.028897 8.545815 -16.357698 20.260179 6.585028 -18.151495 0.293096 -40.976180 71.010985 -44.372172 4.656381 -12.364795 13.353735 -0.018915 0.018374 -0.016554 -9.736847 -16.093931 9.505627 54.334744 81.478636 55.896054 -0.041554 -17.945111 -22.487028 0.009091 -0.021310 -0.001928
-234.318776 57.853503 22.778690 174.262598 -53.362753 -3.743001 4.225084 22.960020 3.610158 2.196964 13.152227 1.801927 2.825684 16.426111 2.350616 2.202382 13.154606 1.799177 1.476856 18.149867 2.905558 1.760287 -2.098693 4.861571 1.471508 5.251872 -0.211308 -17.352619 -14.784211 -2.939664 -114.488155 -52.015653 154.656637 7.389112 -0.336015 -29.388927 -10.405590 1.594260 -0.194503 12.804811 -9.563992 6.048460 79.869238 -46.711607 -130.009739 8.530519 -16.297656 20.242727 6.586793 -18.150779 0.291122 -40.981790 71.009640 -44.377072 4.657332 -12.365911 13.357350 -0.012726 0.019452 -0.017595 -9.733059 -16.095068 9.496032 54.344264 81.476759 55.911784 -0.046868 -17.947009 -22.483432 0.018180 -0.023388 -0.002357
-234.320436 57.853127 22.776696 174.264880 -53.362506 -3.740305 4.226358 22.963598 3.605037 2.197783 13.150462 1.803815 2.826895 16.426309 2.351719 2.205326 13.154364 1.797542 1.489538 18.156173 2.903029 1.771261 -2.087714 4.867620 1.474250 5.249434 -0.195788 -17.164719 -14.817722 -3.020327 -114.397887 -52.030873 154.607646 7.437573 -0.301125 -29.344432 -10.369853 1.594977 -0.215483 12.640883 -9.608238 6.118106 79.738816 -46.680692 -129.985893 8.517084 -16.248389 20.220112 6.584764 -18.150185 0.288076 -40.997512 71.009488 -44.397310 4.656696 -12.370975 13.361290 -0.009717 0.020715 -0.015444 -9.734227 -16.095420 9.490172 54.358599 81.475643 55.926207 -0.034733 -17.945466 -22.487916 0.009415 -0.021608 -0.001552
-234.319826 57.851966 22.775655 174.254840 -53.356599 -3.737744 4.239128 22.958379 3.609672 2.198330 13.150987 1.804968 2.838866 16.427109 2.350091 2.202334 13.151510 1.802194 1.502054 18.160415 2.903633 1.790790 -2.065009 4.877017 1.469008 5.247944 -0.185906 -16.974721 -14.848747 -3.093514 -114.307099 -52.046446 154.564509 7.491007 -0.266359 -29.295209 -10.356503 1.598456 -0.222947 12.500305 -9.654510 6.176345 79.586275 -46.651084 -129.955224 8.501001 -16.214173 20.192131 6.586521 -18.156774 0.294016 -41.002386 71.010355 -44.403955 4.656502 -12.374927 13.361284 -0.014447 0.022141 -0.014008 -9.734049 -16.099890 9.498525 54.374536 81.476019 55.941578 -0.031788 -17.944935 -22.493856 0.003708 -0.022286 0.000599
-234.319956 57.849982 22.775056 174.245029 -53.345242 -3.727264 4.245906 22.946832 3.606330 2.212359 13.146648 1.802111 2.852729 16.417187 2.349464 2.206585 13.150112 1.803734 1.503987 18.174562 2.924327 1.803947 -2.038671 4.892139 1.455410 5.262110 -0.145880 -16.794616 -14.887016 -3.180519 -114.213184 -52.057775 154.524669 7.551893 -0.226975 -29.237709 -10.360073 1.619503 -0.217693 12.357184 -9.701849 6.240564 79.432197 -46.623881 -129.931387 8.484133 -16.188333 20.167487 6.587419 -18.175692 0.292364 -41.024912 71.020612 -44.433728 4.652315 -12.380142 13.360799 -0.014840 0.020867 -0.010844 -9.731958 -16.111951 9.499244 54.383620 81.477468 55.951455 -0.043476 -17.946142 -22.492381 0.009159 -0.025860 -0.000522
-234.319396 57.848936 22.773882 174.244713 -53.340761 -3.724662 4.249065 22.942300 3.605516 2.211237 13.145573 1.801939 2.858007 16.412065 2.348986 2.219300 13.135121 1.800036 1.499633 18.194818 2.936489 1.828537 -2.000896 4.905185 1.443352 5.285607 -0.114745 -16.615208 -14.927482 -3.269684 -114.118294 -52.065429 154.491588 7.619549 -0.180910 -29.171770 -10.355442 1.648105 -0.224595 12.210993 -9.749735 6.310648 79.286180 -46.601808 -129.921686 8.467121 -16.167962 20.155288 6.587564 -18.181879 0.289429 -41.038316 71.022269 -44.449898 4.655137 -12.377157 13.361042 -0.016535 0.015602 -0.008351 -9.733657 -16.117609 9.497196 54.382237 81.480109 55.951198 -0.031866 -17.941757 -22.494853 0.009941 -0.025748 0.000522
-234.318252 57.847720 22.773013 174.242510 -53.335215 -3.721433 4.264180 22.930787 3.612374 2.207824 13.143736 1.799532 2.855557 16.411156 2.350308 2.239250 13.108292 1.794243 1.489316 18.227493 2.953309 1.853975 -1.953323 4.919990 1.423709 5.332133 -0.058547 -16.433431 -14.983690 -3.374770 -114.031407 -52.074641 154.474031 7.689058 -0.130317 -29.106117 -10.356239 1.690729 -0.231062 12.058132 -9.798729 6.384800 79.149156 -46.589560 -129.917447 8.439890 -16.153035 20.154298 6.589412 -18.188774 0.286840 -41.044856 71.023060 -44.455180 4.658005 -12.375135 13.360078 -0.017400 0.013089 -0.008666 -9.733414 -16.123990 9.497080 54.373106 81.482709 55.943248 -0.028535 -17.939566 -22.490773 0.009379 -0.027140 -0.004689
-234.317183 57.846164 22.772523 174.239193 -53.327360 -3.715241 4.274267 22.914171 3.614708 2.212188 13.138391 1.800308 2.882111 16.371866 2.348456 2.225103 13.121736 1.801814 1.497630 18.262364 2.967698 1.862841 -1.899053 4.943307 1.401487 5.370238 -0.037399 -16.252880 -15.020092 -3.450071 -113.956903 -52.086254 154.471124 7.758401 -0.076773 -29.042971 -10.350204 1.734666 -0.242856 11.891423 -9.848633 6.464317 79.028845 -46.594187 -129.913852 8.389124 -16.141374 20.162893 6.586454 -18.203178 0.288423 -41.076550 71.024200 -44.490681 4.662292 -12.372355 13.359138 -0.019956 0.009258 -0.010666 -9.731452 -16.135241 9.495619 54.366014 81.489560 55.937327 -0.020049 -17.937541 -22.485513 0.004897 -0.026495 -0.008904
-234.316862 57.843783 22.772738 174.242065 -53.313098 -3.709096 4.282749 22.886795 3.611457 2.230257 13.111188 1.802246 2.873542 16.376593 2.350922 2.230191 13.111198 1.802210 1.504319 18.299586 2.986437 1.869488 -1.837369 4.967679 1.383818 5.421574 0.004150 -16.071417 -15.067035 -3.544340 -113.892599 -52.094020 154.476933 7.831503 -0.019370 -28.979462 -10.343244 1.783839 -0.258064 11.710711 -9.899996 6.551638 78.936109 -46.617888 -129.914850 8.311658 -16.124317 20.178140 6.584200 -18.219296 0.275929 -41.088790 71.032024 -44.500583 4.664897 -12.377525 13.356112 -0.011081 0.012279 -0.009579 -9.736581 -16.152333 9.490944 54.368960 81.490593 55.938535 -0.015297 -17.934775 -22.486300 0.009587 -0.025784 -0.007583
-234.315816 57.842458 22.772530 174.249390 -53.306307 -3.710614 4.283150 22.873840 3.608291 2.237943 13.099398 1.802042 2.872487 16.375713 2.353363 2.232921 13.105715 1.802519 1.519665 18.314766 2.993782 1.859926 -1.802313 4.987354 1.375891 5.450827 0.042763 -15.878935 -15.113413 -3.653080 -113.835226 -52.094851 154.485789 7.907203 0.040995 -28.916337 -10.324557 1.812373 -0.281408 11.518270 -9.954729 6.646909 78.877883 -46.659566 -129.924180 8.211711 -16.098624 20.193186 6.580587 -18.227032 0.267417 -41.089384 71.038798 -44.499780 4.665307 -12.379357 13.357510 -0.001917 0.012445 -0.010188 -9.745171 -16.160174 9.494063 54.357948 81.486327 55.923695 -0.021495 -17.929965 -22.485748 0.011803 -0.024341 -0.003904
-234.314843 57.841363 22.772418 174.255164 -53.301118 -3.711327 4.284806 22.861926 3.605684 2.236053 13.099898 1.802618 2.880945 16.362406 2.351539 2.260869 13.064613 1.788077 1.542471 18.348562 3.009671 1.823072 -1.753073 5.031175 1.347656 5.514593 0.104193 -15.680286 -15.160934 -3.769976 -113.778673 -52.092085 154.489810 7.980522 0.098610 -28.850703 -10.332241 1.882823 -0.291735 11.314520 -10.013031 6.747599 78.855874 -46.722148 -129.944070 8.094566 -16.071218 20.200192 6.578804 -18.232331 0.260728 -41.087179 71.042636 -44.497054 4.676733 -12.382006 13.359616 -0.002518 0.012195 -0.012109 -9.749679 -16.166696 9.493464 54.346452 81.488914 55.911211 -0.021350 -17.929840 -22.484929 0.008733 -0.023242 -0.002810
-234.314033 57.840388 22.772488 174.257615 -53.296799 -3.709962 4.300368 22.842168 3.607199 2.242457 13.088724 1.802727 2.888894 16.348611 2.351887 2.276520 13.043925 1.782702 1.525476 18.396814 3.041249 1.833967 -1.695436 5.054784 1.315384 5.575695 0.169923 -15.470802 -15.211698 -3.894136 -113.711448 -52.091864 154.482041 8.051123 0.144785 -28.778860 -10.343030 1.954646 -0.300220 11.104578 -10.074183 6.851817 78.872865 -46.804350 -129.978573 7.969344 -16.031890 20.188688 6.578454 -18.236440 0.256041 -41.083759 71.045548 -44.493904 4.689686 -12.387008 13.360506 -0.013082 0.013335 -0.014261 -9.754484 -16.171122 9.493356 54.324826 81.492764 55.886247 -0.020422 -17.930580 -22.483255 0.008925 -0.022268 -0.002610
